<?xml version="1.0" encoding="iso-8859-1"?>
<!-- Generator: Adobe Illustrator 19.0.0, SVG Export Plug-In . SVG Version: 6.00 Build 0)  -->
<svg version="1.1" id="Capa_1" xmlns="http://www.w3.org/2000/svg" xmlns:xlink="http://www.w3.org/1999/xlink" x="0px" y="0px"
	 viewBox="0 0 512 512" style="enable-background:new 0 0 512 512;" xml:space="preserve">
<circle style="fill:#EBBA16;" cx="256" cy="256" r="247.467"/>
<circle style="fill:#ED8A19;" cx="256" cy="256" r="204.8"/>
<g>
	<path style="fill:#FFFFFF;" d="M304.367,375.467h-45.525c-25.097,0-45.508-19.9-45.508-44.365V197.965
		c0-24.465,20.412-44.365,45.5-44.365h45.525c25.097,0,45.508,19.9,45.508,44.365V230.4H307.2v-34.133H256V332.8h51.2v-34.133
		h42.667v32.435C349.867,355.567,329.455,375.467,304.367,375.467z"/>
	<circle style="fill:#FFFFFF;" cx="145.067" cy="179.2" r="25.6"/>
</g>
<g>
	<path style="fill:#4D007E;" d="M256,512C114.842,512,0,397.158,0,256S114.842,0,256,0s256,114.842,256,256S397.158,512,256,512z
		 M256,17.067C124.254,17.067,17.067,124.254,17.067,256S124.254,494.933,256,494.933S494.933,387.746,494.933,256
		S387.746,17.067,256,17.067z"/>
	<path style="fill:#4D007E;" d="M256,469.333c-117.632,0-213.333-95.701-213.333-213.333S138.368,42.667,256,42.667
		S469.333,138.368,469.333,256S373.632,469.333,256,469.333z M256,59.733C147.78,59.733,59.733,147.78,59.733,256
		S147.78,452.267,256,452.267S452.267,364.22,452.267,256S364.22,59.733,256,59.733z"/>
	<path style="fill:#4D007E;" d="M304.367,384h-45.525c-29.798,0-54.042-23.731-54.042-52.898V197.965
		c0-29.167,24.243-52.898,54.033-52.898h45.525c29.798,0,54.042,23.731,54.042,52.898V230.4c0,4.71-3.823,8.533-8.533,8.533H307.2
		c-4.71,0-8.533-3.823-8.533-8.533v-25.6h-34.133v119.467h34.133v-25.6c0-4.71,3.823-8.533,8.533-8.533h42.667
		c4.71,0,8.533,3.823,8.533,8.533v32.435C358.4,360.269,334.157,384,304.367,384z M258.833,162.133
		c-20.386,0-36.966,16.068-36.966,35.831V331.11c0,19.755,16.58,35.823,36.966,35.823h45.525c20.395,0,36.975-16.068,36.975-35.831
		V307.2h-25.6v25.6c0,4.71-3.823,8.533-8.533,8.533H256c-4.71,0-8.533-3.823-8.533-8.533V196.267c0-4.71,3.823-8.533,8.533-8.533
		h51.2c4.71,0,8.533,3.823,8.533,8.533v25.6h25.6v-23.902c0-19.763-16.58-35.831-36.966-35.831H258.833z"/>
	<path style="fill:#4D007E;" d="M145.067,213.333c-18.825,0-34.133-15.309-34.133-34.133s15.309-34.133,34.133-34.133
		S179.2,160.375,179.2,179.2S163.891,213.333,145.067,213.333z M145.067,162.133c-9.412,0-17.067,7.654-17.067,17.067
		s7.654,17.067,17.067,17.067c9.412,0,17.067-7.654,17.067-17.067S154.479,162.133,145.067,162.133z"/>
</g>
<g>
</g>
<g>
</g>
<g>
</g>
<g>
</g>
<g>
</g>
<g>
</g>
<g>
</g>
<g>
</g>
<g>
</g>
<g>
</g>
<g>
</g>
<g>
</g>
<g>
</g>
<g>
</g>
<g>
</g>
</svg>
