<?xml version="1.0" encoding="iso-8859-1"?>
<!-- Generator: Adobe Illustrator 19.0.0, SVG Export Plug-In . SVG Version: 6.00 Build 0)  -->
<svg version="1.1" id="Capa_1" xmlns="http://www.w3.org/2000/svg" xmlns:xlink="http://www.w3.org/1999/xlink" x="0px" y="0px"
	 viewBox="0 0 512 512" style="enable-background:new 0 0 512 512;" xml:space="preserve">
<circle style="fill:#366DB6;" cx="256" cy="256" r="247.467"/>
<circle style="fill:#1F436D;" cx="256" cy="256" r="204.8"/>
<g>
	<circle style="fill:#FFFFFF;" cx="145.067" cy="179.2" r="25.6"/>
	<path style="fill:#FFFFFF;" d="M349.867,187.716v-25.557c0-4.727-3.831-8.559-8.55-8.559H256h-34.116
		c-4.719,0-8.55,3.831-8.55,8.55v34.116v42.667V281.6v85.316c0,4.719,3.831,8.55,8.55,8.55h25.557c4.727,0,8.559-3.831,8.559-8.55
		V281.6h85.316c4.719,0,8.55-3.831,8.55-8.55v-25.557c0-4.727-3.831-8.559-8.55-8.559H256v-42.667h85.316
		C346.035,196.267,349.867,192.435,349.867,187.716z"/>
</g>
<g>
	<path style="fill:#4D007E;" d="M256,512C114.842,512,0,397.158,0,256S114.842,0,256,0s256,114.842,256,256S397.158,512,256,512z
		 M256,17.067C124.254,17.067,17.067,124.254,17.067,256S124.254,494.933,256,494.933S494.933,387.746,494.933,256
		S387.746,17.067,256,17.067z"/>
	<path style="fill:#4D007E;" d="M256,469.333c-117.632,0-213.333-95.701-213.333-213.333S138.368,42.667,256,42.667
		S469.333,138.368,469.333,256S373.632,469.333,256,469.333z M256,59.733C147.78,59.733,59.733,147.78,59.733,256
		S147.78,452.267,256,452.267S452.267,364.22,452.267,256S364.22,59.733,256,59.733z"/>
	<path style="fill:#4D007E;" d="M145.067,213.333c-18.825,0-34.133-15.309-34.133-34.133s15.309-34.133,34.133-34.133
		S179.2,160.375,179.2,179.2S163.891,213.333,145.067,213.333z M145.067,162.133c-9.412,0-17.067,7.654-17.067,17.067
		s7.654,17.067,17.067,17.067c9.412,0,17.067-7.654,17.067-17.067S154.479,162.133,145.067,162.133z"/>
	<path style="fill:#4D007E;" d="M247.45,384h-25.557c-9.429,0-17.092-7.663-17.092-17.084V162.15
		c0-9.421,7.663-17.084,17.084-17.084h119.424c9.429,0,17.092,7.663,17.092,17.084v25.557c0,9.429-7.663,17.092-17.084,17.092
		h-76.783v25.6h76.783c9.421,0,17.084,7.663,17.084,17.084v25.557c0,9.429-7.663,17.092-17.084,17.092h-76.783v76.783
		C264.533,376.337,256.87,384,247.45,384z M221.884,162.133l-0.017,204.783l25.583,0.017l0.017-85.333
		c0-4.71,3.823-8.533,8.533-8.533h85.316l0.017-25.583L256,247.467c-4.71,0-8.533-3.823-8.533-8.533v-42.667
		c0-4.71,3.823-8.533,8.533-8.533l85.333-0.017v-25.557L221.884,162.133z"/>
</g>
<g>
</g>
<g>
</g>
<g>
</g>
<g>
</g>
<g>
</g>
<g>
</g>
<g>
</g>
<g>
</g>
<g>
</g>
<g>
</g>
<g>
</g>
<g>
</g>
<g>
</g>
<g>
</g>
<g>
</g>
</svg>
